<svg width="347" height="142" viewBox="0 0 347 142" fill="none" xmlns="http://www.w3.org/2000/svg">
<g filter="url(#filter0_d_6485_15715)">
<path fill-rule="evenodd" clip-rule="evenodd" d="M273 10.9998C275.761 10.9998 278 13.2383 278 15.9998V86.7074C278.104 88.6712 278.188 90.6858 278.251 92.752C278.707 107.489 296.274 114.926 305 116.803C289.627 116.803 276.58 115.426 265.581 113H19C16.2386 113 14 110.761 14 108V15.9998C14 13.2383 16.2386 10.9998 19 10.9998H273Z" fill="white"/>
<path d="M278 86.7074L277.501 86.7337L277.5 86.7205V86.7074H278ZM278.251 92.752L278.751 92.7365L278.251 92.752ZM305 116.803L305.105 116.314L305 117.303V116.803ZM265.581 113V112.5H265.636L265.689 112.511L265.581 113ZM277.5 15.9998C277.5 13.5145 275.485 11.4998 273 11.4998V10.4998C276.038 10.4998 278.5 12.9622 278.5 15.9998H277.5ZM277.5 86.7074V15.9998H278.5V86.7074H277.5ZM277.752 92.7674C277.688 90.7048 277.604 88.6938 277.501 86.7337L278.499 86.6811C278.603 88.6487 278.687 90.6668 278.751 92.7365L277.752 92.7674ZM304.895 117.291C300.481 116.342 293.841 113.992 288.234 110.008C282.628 106.024 277.986 100.354 277.752 92.7674L278.751 92.7365C278.972 99.8872 283.341 105.304 288.814 109.193C294.286 113.081 300.792 115.387 305.105 116.314L304.895 117.291ZM265.689 112.511C276.646 114.928 289.656 116.303 305 116.303V117.303C289.598 117.303 276.514 115.923 265.473 113.488L265.689 112.511ZM19 112.5H265.581V113.5H19V112.5ZM14.5 108C14.5 110.485 16.5147 112.5 19 112.5V113.5C15.9624 113.5 13.5 111.037 13.5 108H14.5ZM14.5 15.9998V108H13.5V15.9998H14.5ZM19 11.4998C16.5147 11.4998 14.5 13.5145 14.5 15.9998H13.5C13.5 12.9622 15.9624 10.4998 19 10.4998V11.4998ZM273 11.4998H19V10.4998H273V11.4998Z" fill="#FF9E4C"/>
</g>
<path d="M97.2 49.6478H91.04V45.3758C91.04 45.0078 90.736 44.7198 90.368 44.7198C89.984 44.7198 89.68 45.0078 89.68 45.3758V55.4398C89.68 55.8078 89.984 56.1118 90.368 56.1118C90.736 56.1118 91.04 55.8078 91.04 55.4398V50.9278H97.2V55.4398C97.2 55.8078 97.504 56.1118 97.888 56.1118C98.256 56.1118 98.56 55.8078 98.56 55.4398V45.3758C98.56 45.0078 98.256 44.7198 97.888 44.7198C97.504 44.7198 97.2 45.0078 97.2 45.3758V49.6478ZM100.874 53.8878C100.874 55.2478 101.754 56.1118 103.082 56.1118C104.058 56.1118 104.826 55.7598 105.386 55.0718V55.5518C105.386 55.8558 105.658 56.1118 105.994 56.1118C106.33 56.1118 106.602 55.8558 106.602 55.5518V51.5838C106.602 49.6158 105.818 48.6398 103.834 48.6398C103.21 48.6398 102.538 48.7838 101.85 49.0718C101.642 49.1518 101.53 49.3278 101.53 49.5838C101.53 49.6638 101.546 49.7278 101.578 49.8078C101.674 50.0158 101.834 50.1278 102.074 50.1278C102.154 50.1278 102.234 50.1118 102.314 50.0798C102.81 49.8878 103.29 49.7918 103.754 49.7918C105.082 49.7918 105.386 50.5278 105.386 52.0638C104.954 51.7598 104.362 51.5998 103.594 51.5998C101.994 51.5998 100.874 52.4638 100.874 53.8878ZM105.386 54.0318C104.858 54.6558 104.25 54.9598 103.53 54.9598C102.714 54.9598 102.234 54.5278 102.234 53.8238C102.234 53.0558 102.922 52.6398 103.77 52.6398C104.394 52.6398 104.938 52.7998 105.386 53.1198V54.0318ZM115.466 49.3758C115.466 49.0398 115.194 48.7198 114.826 48.7198C114.554 48.7198 114.25 48.9118 113.914 49.3118L110.026 54.0958V49.3278C110.09 48.5438 108.682 48.5438 108.746 49.3278V55.4718C108.746 55.8078 109.018 56.1118 109.386 56.1118C109.674 56.1118 109.978 55.9198 110.298 55.5358L114.186 50.7518V55.5038C114.122 56.2878 115.53 56.2878 115.466 55.5038V49.3758ZM123.489 50.5918C123.489 49.3598 122.449 48.7358 120.385 48.7358C120.209 48.7358 119.537 48.7518 118.385 48.7838C118.049 48.7998 117.777 49.0878 117.777 49.4238V55.3758C117.777 55.7118 118.049 55.9998 118.385 56.0158C119.633 56.0478 120.305 56.0638 120.417 56.0638C122.625 56.0638 123.729 55.3598 123.729 53.9678C123.729 53.0398 123.169 52.4638 122.049 52.2558C122.897 52.1118 123.489 51.4398 123.489 50.5918ZM120.593 52.7678C121.777 52.7678 122.369 53.1358 122.369 53.8718C122.369 54.6398 121.761 55.0238 120.529 55.0238C120.321 55.0238 119.825 55.0078 119.057 54.9758V52.7678H120.593ZM119.057 49.8238C119.697 49.7918 120.177 49.7758 120.481 49.7758C121.585 49.7758 122.129 50.1278 122.129 50.8478C122.129 51.5358 121.553 51.9678 120.673 51.9678H119.057V49.8238ZM126.963 49.3278C127.027 48.5438 125.619 48.5438 125.683 49.3278V55.3918C125.683 55.7278 125.955 55.9998 126.291 55.9998H128.003C130.099 55.9998 130.995 54.8958 130.995 53.4398C130.995 51.9838 130.195 50.9598 128.147 50.9598H126.963V49.3278ZM133.651 49.3278C133.715 48.5438 132.307 48.5438 132.371 49.3278V55.5038C132.307 56.2878 133.715 56.2878 133.651 55.5038V49.3278ZM126.963 52.1598H127.907C129.059 52.1598 129.635 52.6078 129.635 53.4878C129.635 54.3678 129.123 54.7998 127.891 54.7998H126.963V52.1598ZM140.877 50.2558C140.957 50.3038 141.069 50.3198 141.181 50.3198C141.421 50.3198 141.597 50.2238 141.709 50.0318C141.757 49.9518 141.789 49.8558 141.789 49.7438C141.789 49.5038 141.677 49.3118 141.453 49.1998C140.797 48.8318 140.013 48.6398 139.117 48.6398C138.077 48.6398 137.197 49.0078 136.509 49.7278C135.821 50.4478 135.469 51.3438 135.469 52.3998C135.469 53.5358 135.821 54.4318 136.541 55.1198C137.245 55.8078 138.173 56.1598 139.325 56.1598C140.301 56.1598 141.133 55.8558 141.821 55.2318C141.933 55.1358 141.997 54.9918 141.997 54.8158C141.997 54.6558 141.933 54.5278 141.821 54.4158C141.709 54.3038 141.597 54.2558 141.453 54.2558C141.293 54.2558 141.133 54.3198 140.957 54.4638C140.525 54.7998 140.013 54.9598 139.421 54.9598C138.685 54.9598 138.077 54.7198 137.581 54.2558C137.085 53.7918 136.829 53.1678 136.829 52.3998C136.829 51.6638 137.069 51.0558 137.565 50.5598C138.045 50.0798 138.621 49.8398 139.293 49.8398C139.821 49.8398 140.349 49.9838 140.877 50.2558ZM152.694 49.3278C152.758 48.5438 151.35 48.5438 151.414 49.3278V54.7998H148.774V49.3278C148.838 48.5438 147.43 48.5438 147.494 49.3278V54.7998H144.854V49.3278C144.918 48.5438 143.51 48.5438 143.574 49.3278V55.3918C143.574 55.7278 143.846 55.9998 144.182 55.9998H152.086C152.422 55.9998 152.694 55.7278 152.694 55.3918V49.3278ZM155.876 51.7598C156.02 50.6238 156.884 49.8398 158.164 49.8398C159.396 49.8398 160.18 50.5598 160.244 51.7598H155.876ZM161.572 51.9358C161.572 50.9598 161.252 50.1758 160.612 49.5518C159.972 48.9438 159.172 48.6398 158.228 48.6398C157.076 48.6398 156.164 48.9918 155.508 49.6958C154.852 50.4158 154.516 51.3118 154.516 52.3998C154.516 53.5358 154.868 54.4478 155.572 55.1358C156.276 55.8238 157.204 56.1598 158.372 56.1598C159.316 56.1598 160.164 55.8878 160.916 55.3598C161.044 55.2798 161.108 55.1358 161.108 54.9278C161.108 54.8158 161.076 54.7198 161.012 54.6398C160.884 54.4958 160.74 54.4318 160.58 54.4318C160.468 54.4318 160.34 54.4638 160.228 54.5278C159.732 54.8158 159.14 54.9598 158.468 54.9598C157.044 54.9598 156.068 54.1438 155.956 52.7998H161.012C161.268 52.7998 161.54 52.5438 161.556 52.2878C161.572 52.2078 161.572 52.0958 161.572 51.9358ZM164.188 51.7598C164.332 50.6238 165.196 49.8398 166.476 49.8398C167.708 49.8398 168.492 50.5598 168.556 51.7598H164.188ZM169.884 51.9358C169.884 50.9598 169.564 50.1758 168.924 49.5518C168.284 48.9438 167.484 48.6398 166.54 48.6398C165.388 48.6398 164.476 48.9918 163.82 49.6958C163.164 50.4158 162.828 51.3118 162.828 52.3998C162.828 53.5358 163.18 54.4478 163.884 55.1358C164.588 55.8238 165.516 56.1598 166.684 56.1598C167.628 56.1598 168.476 55.8878 169.228 55.3598C169.356 55.2798 169.42 55.1358 169.42 54.9278C169.42 54.8158 169.388 54.7198 169.324 54.6398C169.196 54.4958 169.052 54.4318 168.892 54.4318C168.78 54.4318 168.652 54.4638 168.54 54.5278C168.044 54.8158 167.452 54.9598 166.78 54.9598C165.356 54.9598 164.38 54.1438 164.268 52.7998H169.324C169.58 52.7998 169.852 52.5438 169.868 52.2878C169.884 52.2078 169.884 52.0958 169.884 51.9358ZM93.792 76.7918C93.968 76.9998 94.176 77.1118 94.416 77.1118C94.816 77.1118 95.056 76.8238 95.056 76.5038C95.056 76.3278 94.992 76.1678 94.864 76.0238L92.304 73.2398L94.624 70.7118C94.832 70.5038 94.848 70.1358 94.624 69.8958C94.4 69.6558 93.936 69.6078 93.552 70.0558L91.136 72.8558C90.928 73.0958 90.928 73.5118 91.136 73.7838L93.792 76.7918ZM90.432 70.3278C90.496 69.5438 89.088 69.5438 89.152 70.3278V76.5038C89.088 77.2878 90.496 77.2878 90.432 76.5038V70.3278ZM96.3588 74.8878C96.3588 76.2478 97.2388 77.1118 98.5668 77.1118C99.5428 77.1118 100.311 76.7598 100.871 76.0718V76.5518C100.871 76.8558 101.143 77.1118 101.479 77.1118C101.815 77.1118 102.087 76.8558 102.087 76.5518V72.5838C102.087 70.6158 101.303 69.6398 99.3188 69.6398C98.6948 69.6398 98.0228 69.7838 97.3348 70.0718C97.1268 70.1518 97.0148 70.3278 97.0148 70.5838C97.0148 70.6638 97.0308 70.7278 97.0628 70.8078C97.1588 71.0158 97.3188 71.1278 97.5588 71.1278C97.6388 71.1278 97.7188 71.1118 97.7988 71.0798C98.2948 70.8878 98.7748 70.7918 99.2388 70.7918C100.567 70.7918 100.871 71.5278 100.871 73.0638C100.439 72.7598 99.8468 72.5998 99.0788 72.5998C97.4788 72.5998 96.3588 73.4638 96.3588 74.8878ZM100.871 75.0318C100.343 75.6558 99.7348 75.9598 99.0148 75.9598C98.1988 75.9598 97.7188 75.5278 97.7188 74.8238C97.7188 74.0558 98.4068 73.6398 99.2548 73.6398C99.8788 73.6398 100.423 73.7998 100.871 74.1198V75.0318ZM108.358 73.0798C107.926 73.3838 107.382 73.5278 106.71 73.5278C105.67 73.5278 105.158 72.9678 105.158 71.8318V70.3278C105.158 69.9918 104.87 69.7198 104.486 69.7198C104.086 69.7198 103.798 69.9918 103.798 70.3278V71.9758C103.798 73.8158 104.646 74.7278 106.358 74.7278C107.142 74.7278 107.798 74.5518 108.358 74.1998V76.5038C108.294 77.2878 109.702 77.2878 109.638 76.5038V70.3278C109.702 69.5438 108.294 69.5438 108.358 70.3278V73.0798ZM112.829 72.7598C112.973 71.6238 113.837 70.8398 115.117 70.8398C116.349 70.8398 117.133 71.5598 117.197 72.7598H112.829ZM118.525 72.9358C118.525 71.9598 118.205 71.1758 117.565 70.5518C116.925 69.9438 116.125 69.6398 115.181 69.6398C114.029 69.6398 113.117 69.9918 112.461 70.6958C111.805 71.4158 111.469 72.3118 111.469 73.3998C111.469 74.5358 111.821 75.4478 112.525 76.1358C113.229 76.8238 114.157 77.1598 115.325 77.1598C116.269 77.1598 117.117 76.8878 117.869 76.3598C117.997 76.2798 118.061 76.1358 118.061 75.9278C118.061 75.8158 118.029 75.7198 117.965 75.6398C117.837 75.4958 117.693 75.4318 117.533 75.4318C117.421 75.4318 117.293 75.4638 117.181 75.5278C116.685 75.8158 116.093 75.9598 115.421 75.9598C113.997 75.9598 113.021 75.1438 112.909 73.7998H117.965C118.221 73.7998 118.493 73.5438 118.509 73.2878C118.525 73.2078 118.525 73.0958 118.525 72.9358ZM125.189 71.2558C125.269 71.3038 125.381 71.3198 125.493 71.3198C125.733 71.3198 125.909 71.2238 126.021 71.0318C126.069 70.9518 126.101 70.8558 126.101 70.7438C126.101 70.5038 125.989 70.3118 125.765 70.1998C125.109 69.8318 124.325 69.6398 123.429 69.6398C122.389 69.6398 121.509 70.0078 120.821 70.7278C120.133 71.4478 119.781 72.3438 119.781 73.3998C119.781 74.5358 120.133 75.4318 120.853 76.1198C121.557 76.8078 122.485 77.1598 123.637 77.1598C124.613 77.1598 125.445 76.8558 126.133 76.2318C126.245 76.1358 126.309 75.9918 126.309 75.8158C126.309 75.6558 126.245 75.5278 126.133 75.4158C126.021 75.3038 125.909 75.2558 125.765 75.2558C125.605 75.2558 125.445 75.3198 125.269 75.4638C124.837 75.7998 124.325 75.9598 123.733 75.9598C122.997 75.9598 122.389 75.7198 121.893 75.2558C121.397 74.7918 121.141 74.1678 121.141 73.3998C121.141 72.6638 121.381 72.0558 121.877 71.5598C122.357 71.0798 122.933 70.8398 123.605 70.8398C124.133 70.8398 124.661 70.9838 125.189 71.2558ZM130.801 71.0798H132.833C133.617 71.1438 133.617 69.7358 132.833 69.7998H127.489C126.705 69.7358 126.705 71.1438 127.489 71.0798H129.521V76.5038C129.457 77.2878 130.865 77.2878 130.801 76.5038V71.0798ZM140.552 71.5918C140.552 70.3598 139.512 69.7358 137.448 69.7358C137.272 69.7358 136.6 69.7518 135.448 69.7838C135.112 69.7998 134.84 70.0878 134.84 70.4238V76.3758C134.84 76.7118 135.112 76.9998 135.448 77.0158C136.696 77.0478 137.368 77.0638 137.48 77.0638C139.688 77.0638 140.792 76.3598 140.792 74.9678C140.792 74.0398 140.232 73.4638 139.112 73.2558C139.96 73.1118 140.552 72.4398 140.552 71.5918ZM137.656 73.7678C138.84 73.7678 139.432 74.1358 139.432 74.8718C139.432 75.6398 138.824 76.0238 137.592 76.0238C137.384 76.0238 136.888 76.0078 136.12 75.9758V73.7678H137.656ZM136.12 70.8238C136.76 70.7918 137.24 70.7758 137.544 70.7758C138.648 70.7758 139.192 71.1278 139.192 71.8478C139.192 72.5358 138.616 72.9678 137.736 72.9678H136.12V70.8238ZM143.338 76.0878C144.042 76.8078 144.97 77.1598 146.106 77.1598C147.242 77.1598 148.17 76.8078 148.89 76.0878C149.594 75.3838 149.946 74.4878 149.946 73.3998C149.946 72.3118 149.594 71.4158 148.89 70.6958C148.17 69.9918 147.242 69.6398 146.106 69.6398C144.97 69.6398 144.042 69.9918 143.338 70.6958C142.618 71.4158 142.266 72.3118 142.266 73.3998C142.266 74.4878 142.618 75.3838 143.338 76.0878ZM143.626 73.3998C143.626 71.8798 144.682 70.8398 146.106 70.8398C147.562 70.8398 148.586 71.9118 148.586 73.3998C148.586 74.9198 147.562 75.9598 146.106 75.9598C144.65 75.9598 143.626 74.8878 143.626 73.3998ZM161.851 70.4078C161.851 70.0718 161.579 69.7998 161.243 69.7998H155.979C155.643 69.7998 155.371 70.0718 155.371 70.4078V76.5038C155.307 77.2878 156.715 77.2878 156.651 76.5038V70.9998H160.571V76.5038C160.507 77.2878 161.915 77.2878 161.851 76.5038V70.4078ZM165.432 76.6638C165.928 76.9998 166.616 77.1598 167.464 77.1598C168.568 77.1598 169.48 76.7918 170.168 76.0558C170.856 75.3198 171.208 74.3918 171.208 73.2878C171.208 72.2158 170.904 71.3358 170.312 70.6478C169.704 69.9758 168.888 69.6398 167.88 69.6398C166.904 69.6398 165.944 70.0558 165.432 70.6478V70.3278C165.496 69.5438 164.088 69.5438 164.152 70.3278V79.5918C164.088 80.3758 165.496 80.3758 165.432 79.5918V76.6638ZM165.432 71.8318C165.96 71.1758 166.664 70.8398 167.512 70.8398C168.968 70.8398 169.848 71.8478 169.848 73.3358C169.848 74.8718 168.872 75.9598 167.352 75.9598C166.632 75.9598 165.992 75.7678 165.432 75.3998V71.8318ZM173.635 76.0878C174.339 76.8078 175.267 77.1598 176.403 77.1598C177.539 77.1598 178.467 76.8078 179.187 76.0878C179.891 75.3838 180.243 74.4878 180.243 73.3998C180.243 72.3118 179.891 71.4158 179.187 70.6958C178.467 69.9918 177.539 69.6398 176.403 69.6398C175.267 69.6398 174.339 69.9918 173.635 70.6958C172.915 71.4158 172.563 72.3118 172.563 73.3998C172.563 74.4878 172.915 75.3838 173.635 76.0878ZM173.923 73.3998C173.923 71.8798 174.979 70.8398 176.403 70.8398C177.859 70.8398 178.883 71.9118 178.883 73.3998C178.883 74.9198 177.859 75.9598 176.403 75.9598C174.947 75.9598 173.923 74.8878 173.923 73.3998ZM187.825 76.9998V78.1518C187.825 78.4878 188.097 78.7598 188.433 78.7598C188.753 78.7598 189.025 78.4878 189.025 78.1518V76.4078C189.025 76.0718 188.753 75.7998 188.417 75.7998H187.825V70.4078C187.825 70.0718 187.553 69.7998 187.217 69.7998H183.521C183.185 69.7998 182.897 70.0718 182.881 70.4078L182.801 71.7038C182.673 73.5758 182.209 75.1598 181.697 75.7998H181.409C181.073 75.7998 180.801 76.0718 180.801 76.4078V78.1518C180.801 78.4878 181.073 78.7598 181.409 78.7598C181.729 78.7598 182.001 78.4878 182.001 78.1518V76.9998H187.825ZM183.057 75.7998C183.441 75.2878 183.889 73.8798 184.033 72.1998L184.113 70.9998H186.545V75.7998H183.057ZM190.884 70.1198C190.756 69.8478 190.548 69.7198 190.276 69.7198C189.844 69.7198 189.572 70.0238 189.572 70.3918C189.572 70.5038 189.588 70.6158 189.636 70.6958L192.66 76.9998L192.5 77.3838C192.004 78.5358 191.556 79.0158 190.964 79.0158C190.772 79.0158 190.452 78.9358 190.34 78.9358C190.004 78.9358 189.828 79.1118 189.828 79.4478C189.828 79.9438 190.26 80.1998 191.108 80.1998C191.636 80.1998 192.116 79.9758 192.516 79.5438C192.916 79.0958 193.364 78.2478 193.86 76.9998L196.404 70.6478C196.452 70.5198 196.468 70.4238 196.468 70.3438C196.468 69.9758 196.212 69.7198 195.764 69.7198C195.46 69.7198 195.252 69.8798 195.14 70.2158L193.62 74.3598C193.492 74.7438 193.38 75.1118 193.284 75.4638C193.012 74.7918 192.868 74.4238 192.852 74.3758L190.884 70.1198ZM202.636 76.7918C202.812 76.9998 203.02 77.1118 203.26 77.1118C203.66 77.1118 203.9 76.8238 203.9 76.5038C203.9 76.3278 203.836 76.1678 203.708 76.0238L201.148 73.2398L203.468 70.7118C203.676 70.5038 203.692 70.1358 203.468 69.8958C203.244 69.6558 202.78 69.6078 202.396 70.0558L199.98 72.8558C199.772 73.0958 199.772 73.5118 199.98 73.7838L202.636 76.7918ZM199.276 70.3278C199.34 69.5438 197.932 69.5438 197.996 70.3278V76.5038C197.932 77.2878 199.34 77.2878 199.276 76.5038V70.3278ZM213.315 76.4078C213.315 76.0718 213.043 75.7998 212.707 75.7998H212.115V70.3278C212.179 69.5438 210.771 69.5438 210.835 70.3278V75.7998H206.995V70.3278C207.059 69.5438 205.651 69.5438 205.715 70.3278V76.3918C205.715 76.7278 205.987 76.9998 206.323 76.9998H212.115V78.1518C212.115 78.4878 212.387 78.7598 212.723 78.7598C213.043 78.7598 213.315 78.4878 213.315 78.1518V76.4078ZM221.419 70.3758C221.419 70.0398 221.147 69.7198 220.779 69.7198C220.507 69.7198 220.203 69.9118 219.867 70.3118L215.979 75.0958V70.3278C216.043 69.5438 214.635 69.5438 214.699 70.3278V76.4718C214.699 76.8078 214.971 77.1118 215.339 77.1118C215.627 77.1118 215.931 76.9198 216.251 76.5358L220.139 71.7518V76.5038C220.075 77.2878 221.483 77.2878 221.419 76.5038V70.3758ZM230.45 70.3758C230.45 70.0398 230.178 69.7198 229.81 69.7198C229.538 69.7198 229.234 69.9118 228.898 70.3118L225.01 75.0958V70.3278C225.074 69.5438 223.666 69.5438 223.73 70.3278V76.4718C223.73 76.8078 224.002 77.1118 224.37 77.1118C224.658 77.1118 224.962 76.9198 225.282 76.5358L229.17 71.7518V76.5038C229.106 77.2878 230.514 77.2878 230.45 76.5038V70.3758Z" fill="#666666"/>
<circle cx="25.5" cy="25.5" r="25.5" transform="matrix(-1 0 0 1 347 90.9998)" fill="#FD9339"/>
<g filter="url(#filter1_d_6485_15715)">
<circle cx="16.5" cy="16.5" r="16.5" transform="matrix(-1 0 0 1 338 99.9998)" fill="#FF9E4D"/>
</g>
<path d="M321.024 117.15H318.162C317.406 117.15 317.406 115.89 318.162 115.89H321.024V113.082C321.024 112.74 321.294 112.452 321.708 112.452C322.122 112.452 322.374 112.74 322.374 113.082V115.89H325.182C325.938 115.89 325.938 117.15 325.182 117.15H322.374V119.994C322.374 120.336 322.086 120.642 321.708 120.642C321.294 120.642 321.024 120.336 321.024 119.994V117.15Z" fill="white"/>
<path d="M57.2859 24.363C63.5189 24.363 68.5718 19.4107 68.5718 13.3016C68.5718 7.19259 63.5189 2.24023 57.2859 2.24023C51.0529 2.24023 46 7.19259 46 13.3016C46 19.4107 51.0529 24.363 57.2859 24.363Z" stroke="#FF9E4C" stroke-width="3" stroke-linecap="round" stroke-linejoin="round"/>
<path d="M51.1754 22.6088L49.2245 37.0044L57.2859 32.2638L65.3472 37.0044L63.3964 22.593" stroke="#FF9E4C" stroke-width="3" stroke-linecap="round" stroke-linejoin="round"/>
<defs>
<filter id="filter0_d_6485_15715" x="0.5" y="1.49976" width="317.605" height="132.803" filterUnits="userSpaceOnUse" color-interpolation-filters="sRGB">
<feFlood flood-opacity="0" result="BackgroundImageFix"/>
<feColorMatrix in="SourceAlpha" type="matrix" values="0 0 0 0 0 0 0 0 0 0 0 0 0 0 0 0 0 0 127 0" result="hardAlpha"/>
<feOffset dy="4"/>
<feGaussianBlur stdDeviation="6.5"/>
<feColorMatrix type="matrix" values="0 0 0 0 0 0 0 0 0 0 0 0 0 0 0 0 0 0 0.13 0"/>
<feBlend mode="normal" in2="BackgroundImageFix" result="effect1_dropShadow_6485_15715"/>
<feBlend mode="normal" in="SourceGraphic" in2="effect1_dropShadow_6485_15715" result="shape"/>
</filter>
<filter id="filter1_d_6485_15715" x="296" y="99.9998" width="42" height="42" filterUnits="userSpaceOnUse" color-interpolation-filters="sRGB">
<feFlood flood-opacity="0" result="BackgroundImageFix"/>
<feColorMatrix in="SourceAlpha" type="matrix" values="0 0 0 0 0 0 0 0 0 0 0 0 0 0 0 0 0 0 127 0" result="hardAlpha"/>
<feOffset dx="-5" dy="5"/>
<feGaussianBlur stdDeviation="2"/>
<feColorMatrix type="matrix" values="0 0 0 0 0.904167 0 0 0 0 0.524442 0 0 0 0 0.203438 0 0 0 1 0"/>
<feBlend mode="normal" in2="BackgroundImageFix" result="effect1_dropShadow_6485_15715"/>
<feBlend mode="normal" in="SourceGraphic" in2="effect1_dropShadow_6485_15715" result="shape"/>
</filter>
</defs>
</svg>
