<svg width="347" height="142" viewBox="0 0 347 142" fill="none" xmlns="http://www.w3.org/2000/svg">
<g filter="url(#filter0_d_6485_15702)">
<path fill-rule="evenodd" clip-rule="evenodd" d="M273 10.9998C275.761 10.9998 278 13.2383 278 15.9998V86.7074C278.104 88.6712 278.188 90.6858 278.251 92.752C278.707 107.489 296.274 114.926 305 116.803C289.627 116.803 276.58 115.426 265.581 113H19C16.2386 113 14 110.761 14 108V15.9998C14 13.2383 16.2386 10.9998 19 10.9998H273Z" fill="white"/>
<path d="M278 86.7074L277.501 86.7337L277.5 86.7205V86.7074H278ZM278.251 92.752L278.751 92.7365L278.251 92.752ZM305 116.803L305.105 116.314L305 117.303V116.803ZM265.581 113V112.5H265.636L265.689 112.511L265.581 113ZM277.5 15.9998C277.5 13.5145 275.485 11.4998 273 11.4998V10.4998C276.038 10.4998 278.5 12.9622 278.5 15.9998H277.5ZM277.5 86.7074V15.9998H278.5V86.7074H277.5ZM277.752 92.7674C277.688 90.7048 277.604 88.6938 277.501 86.7337L278.499 86.6811C278.603 88.6487 278.687 90.6668 278.751 92.7365L277.752 92.7674ZM304.895 117.291C300.481 116.342 293.841 113.992 288.234 110.008C282.628 106.024 277.986 100.354 277.752 92.7674L278.751 92.7365C278.972 99.8872 283.341 105.304 288.814 109.193C294.286 113.081 300.792 115.387 305.105 116.314L304.895 117.291ZM265.689 112.511C276.646 114.928 289.656 116.303 305 116.303V117.303C289.598 117.303 276.514 115.923 265.473 113.488L265.689 112.511ZM19 112.5H265.581V113.5H19V112.5ZM14.5 108C14.5 110.485 16.5147 112.5 19 112.5V113.5C15.9624 113.5 13.5 111.037 13.5 108H14.5ZM14.5 15.9998V108H13.5V15.9998H14.5ZM19 11.4998C16.5147 11.4998 14.5 13.5145 14.5 15.9998H13.5C13.5 12.9622 15.9624 10.4998 19 10.4998V11.4998ZM273 11.4998H19V10.4998H273V11.4998Z" fill="#FF9E4C"/>
</g>
<path d="M93.752 44.7518C93.528 44.7518 92.728 44.7678 91.352 44.7998C90.984 44.7998 90.68 45.1198 90.68 45.4878V55.3278C90.68 55.6958 90.984 55.9998 91.352 56.0158C92.264 56.0318 93.048 56.0478 93.688 56.0478C96.136 56.0478 97.752 54.9758 97.752 52.7998C97.752 51.3118 96.856 50.3838 95.432 50.1278C96.584 49.7278 97.352 48.8638 97.352 47.5198C97.352 45.8398 96.264 44.7518 93.752 44.7518ZM93.848 50.8958C95.464 50.8958 96.392 51.5518 96.392 52.7198C96.392 54.0638 95.448 54.7678 93.768 54.7678C93.112 54.7678 92.536 54.7518 92.04 54.7038V50.8958H93.848ZM92.04 46.0798C92.84 46.0478 93.4 46.0318 93.72 46.0318C95.24 46.0318 95.992 46.6238 95.992 47.8238C95.992 48.9918 95.064 49.6958 93.832 49.6958H92.04V46.0798ZM101.307 49.3278C101.371 48.5438 99.963 48.5438 100.027 49.3278V55.3918C100.027 55.7278 100.299 55.9998 100.635 55.9998H102.347C104.443 55.9998 105.339 54.8958 105.339 53.4398C105.339 51.9838 104.539 50.9598 102.491 50.9598H101.307V49.3278ZM107.995 49.3278C108.059 48.5438 106.651 48.5438 106.715 49.3278V55.5038C106.651 56.2878 108.059 56.2878 107.995 55.5038V49.3278ZM101.307 52.1598H102.251C103.403 52.1598 103.979 52.6078 103.979 53.4878C103.979 54.3678 103.467 54.7998 102.235 54.7998H101.307V52.1598ZM114.245 49.9998C114.581 49.9998 114.853 49.7278 114.853 49.3918C114.853 49.0718 114.581 48.7998 114.245 48.7998H110.901C110.565 48.7998 110.293 49.0718 110.293 49.4078V55.5038C110.229 56.2878 111.637 56.2878 111.573 55.5038V49.9998H114.245ZM116.447 55.0878C117.151 55.8078 118.079 56.1598 119.215 56.1598C120.351 56.1598 121.279 55.8078 121.999 55.0878C122.703 54.3838 123.055 53.4878 123.055 52.3998C123.055 51.3118 122.703 50.4158 121.999 49.6958C121.279 48.9918 120.351 48.6398 119.215 48.6398C118.079 48.6398 117.151 48.9918 116.447 49.6958C115.727 50.4158 115.375 51.3118 115.375 52.3998C115.375 53.4878 115.727 54.3838 116.447 55.0878ZM116.735 52.3998C116.735 50.8798 117.791 49.8398 119.215 49.8398C120.671 49.8398 121.695 50.9118 121.695 52.3998C121.695 53.9198 120.671 54.9598 119.215 54.9598C117.759 54.9598 116.735 53.8878 116.735 52.3998ZM130.637 55.9998V57.1518C130.637 57.4878 130.909 57.7598 131.245 57.7598C131.565 57.7598 131.837 57.4878 131.837 57.1518V55.4078C131.837 55.0718 131.565 54.7998 131.229 54.7998H130.637V49.4078C130.637 49.0718 130.365 48.7998 130.029 48.7998H126.333C125.997 48.7998 125.709 49.0718 125.693 49.4078L125.613 50.7038C125.485 52.5758 125.021 54.1598 124.509 54.7998H124.221C123.885 54.7998 123.613 55.0718 123.613 55.4078V57.1518C123.613 57.4878 123.885 57.7598 124.221 57.7598C124.541 57.7598 124.813 57.4878 124.813 57.1518V55.9998H130.637ZM125.869 54.7998C126.253 54.2878 126.701 52.8798 126.845 51.1998L126.925 49.9998H129.357V54.7998H125.869ZM139.712 49.3278C139.776 48.5438 138.368 48.5438 138.432 49.3278V51.7598H134.432V49.3278C134.496 48.5438 133.088 48.5438 133.152 49.3278V55.5038C133.088 56.2878 134.496 56.2878 134.432 55.5038V52.9598H138.432V55.5038C138.368 56.2878 139.776 56.2878 139.712 55.5038V49.3278ZM143.291 49.3278C143.355 48.5438 141.947 48.5438 142.011 49.3278V55.3918C142.011 55.7278 142.283 55.9998 142.619 55.9998H144.331C146.427 55.9998 147.323 54.8958 147.323 53.4398C147.323 51.9838 146.523 50.9598 144.475 50.9598H143.291V49.3278ZM149.979 49.3278C150.043 48.5438 148.635 48.5438 148.699 49.3278V55.5038C148.635 56.2878 150.043 56.2878 149.979 55.5038V49.3278ZM143.291 52.1598H144.235C145.387 52.1598 145.963 52.6078 145.963 53.4878C145.963 54.3678 145.451 54.7998 144.219 54.7998H143.291V52.1598ZM153.157 51.7598C153.301 50.6238 154.165 49.8398 155.445 49.8398C156.677 49.8398 157.461 50.5598 157.525 51.7598H153.157ZM158.853 51.9358C158.853 50.9598 158.533 50.1758 157.893 49.5518C157.253 48.9438 156.453 48.6398 155.509 48.6398C154.357 48.6398 153.445 48.9918 152.789 49.6958C152.133 50.4158 151.797 51.3118 151.797 52.3998C151.797 53.5358 152.149 54.4478 152.853 55.1358C153.557 55.8238 154.485 56.1598 155.653 56.1598C156.597 56.1598 157.445 55.8878 158.197 55.3598C158.325 55.2798 158.389 55.1358 158.389 54.9278C158.389 54.8158 158.357 54.7198 158.293 54.6398C158.165 54.4958 158.021 54.4318 157.861 54.4318C157.749 54.4318 157.621 54.4638 157.509 54.5278C157.013 54.8158 156.421 54.9598 155.749 54.9598C154.325 54.9598 153.349 54.1438 153.237 52.7998H158.293C158.549 52.7998 158.821 52.5438 158.837 52.2878C158.853 52.2078 158.853 52.0958 158.853 51.9358ZM169.205 50.2558C169.285 50.3038 169.397 50.3198 169.509 50.3198C169.749 50.3198 169.925 50.2238 170.037 50.0318C170.085 49.9518 170.117 49.8558 170.117 49.7438C170.117 49.5038 170.005 49.3118 169.781 49.1998C169.125 48.8318 168.341 48.6398 167.445 48.6398C166.405 48.6398 165.525 49.0078 164.837 49.7278C164.149 50.4478 163.797 51.3438 163.797 52.3998C163.797 53.5358 164.149 54.4318 164.869 55.1198C165.573 55.8078 166.501 56.1598 167.653 56.1598C168.629 56.1598 169.461 55.8558 170.149 55.2318C170.261 55.1358 170.325 54.9918 170.325 54.8158C170.325 54.6558 170.261 54.5278 170.149 54.4158C170.037 54.3038 169.925 54.2558 169.781 54.2558C169.621 54.2558 169.461 54.3198 169.285 54.4638C168.853 54.7998 168.341 54.9598 167.749 54.9598C167.013 54.9598 166.405 54.7198 165.909 54.2558C165.413 53.7918 165.157 53.1678 165.157 52.3998C165.157 51.6638 165.397 51.0558 165.893 50.5598C166.373 50.0798 166.949 49.8398 167.621 49.8398C168.149 49.8398 168.677 49.9838 169.205 50.2558ZM176.542 55.7918C176.718 55.9998 176.926 56.1118 177.166 56.1118C177.566 56.1118 177.806 55.8238 177.806 55.5038C177.806 55.3278 177.742 55.1678 177.614 55.0238L175.054 52.2398L177.374 49.7118C177.582 49.5038 177.598 49.1358 177.374 48.8958C177.15 48.6558 176.686 48.6078 176.302 49.0558L173.886 51.8558C173.678 52.0958 173.678 52.5118 173.886 52.7838L176.542 55.7918ZM173.182 49.3278C173.246 48.5438 171.838 48.5438 171.902 49.3278V55.5038C171.838 56.2878 173.246 56.2878 173.182 55.5038V49.3278ZM186.341 49.3758C186.341 49.0398 186.069 48.7198 185.701 48.7198C185.429 48.7198 185.125 48.9118 184.789 49.3118L180.901 54.0958V49.3278C180.965 48.5438 179.557 48.5438 179.621 49.3278V55.4718C179.621 55.8078 179.893 56.1118 180.261 56.1118C180.549 56.1118 180.853 55.9198 181.173 55.5358L185.061 50.7518V55.5038C184.997 56.2878 186.405 56.2878 186.341 55.5038V49.3758ZM194.684 55.9998V57.1518C194.684 57.4878 194.956 57.7598 195.292 57.7598C195.612 57.7598 195.884 57.4878 195.884 57.1518V55.4078C195.884 55.0718 195.612 54.7998 195.276 54.7998H194.684V49.4078C194.684 49.0718 194.412 48.7998 194.076 48.7998H190.38C190.044 48.7998 189.756 49.0718 189.74 49.4078L189.66 50.7038C189.532 52.5758 189.068 54.1598 188.556 54.7998H188.268C187.932 54.7998 187.66 55.0718 187.66 55.4078V57.1518C187.66 57.4878 187.932 57.7598 188.268 57.7598C188.588 57.7598 188.86 57.4878 188.86 57.1518V55.9998H194.684ZM189.916 54.7998C190.3 54.2878 190.748 52.8798 190.892 51.1998L190.972 49.9998H193.404V54.7998H189.916ZM201.839 55.7918C202.015 55.9998 202.223 56.1118 202.463 56.1118C202.863 56.1118 203.103 55.8238 203.103 55.5038C203.103 55.3278 203.039 55.1678 202.911 55.0238L200.351 52.2398L202.671 49.7118C202.879 49.5038 202.895 49.1358 202.671 48.8958C202.447 48.6558 201.983 48.6078 201.599 49.0558L199.183 51.8558C198.975 52.0958 198.975 52.5118 199.183 52.7838L201.839 55.7918ZM198.479 49.3278C198.543 48.5438 197.135 48.5438 197.199 49.3278V55.5038C197.135 56.2878 198.543 56.2878 198.479 55.5038V49.3278ZM211.638 49.3758C211.638 49.0398 211.366 48.7198 210.998 48.7198C210.726 48.7198 210.422 48.9118 210.086 49.3118L206.198 54.0958V49.3278C206.262 48.5438 204.854 48.5438 204.918 49.3278V55.4718C204.918 55.8078 205.19 56.1118 205.558 56.1118C205.846 56.1118 206.15 55.9198 206.47 55.5358L210.358 50.7518V55.5038C210.294 56.2878 211.702 56.2878 211.638 55.5038V49.3758ZM96.632 70.4078C96.632 70.0718 96.36 69.7998 96.024 69.7998H90.76C90.424 69.7998 90.152 70.0718 90.152 70.4078V76.5038C90.088 77.2878 91.496 77.2878 91.432 76.5038V70.9998H95.352V76.5038C95.288 77.2878 96.696 77.2878 96.632 76.5038V70.4078ZM100.213 76.6638C100.709 76.9998 101.397 77.1598 102.245 77.1598C103.349 77.1598 104.261 76.7918 104.949 76.0558C105.637 75.3198 105.989 74.3918 105.989 73.2878C105.989 72.2158 105.685 71.3358 105.093 70.6478C104.485 69.9758 103.669 69.6398 102.661 69.6398C101.685 69.6398 100.725 70.0558 100.213 70.6478V70.3278C100.277 69.5438 98.8693 69.5438 98.9333 70.3278V79.5918C98.8693 80.3758 100.277 80.3758 100.213 79.5918V76.6638ZM100.213 71.8318C100.741 71.1758 101.445 70.8398 102.293 70.8398C103.749 70.8398 104.629 71.8478 104.629 73.3358C104.629 74.8718 103.653 75.9598 102.133 75.9598C101.413 75.9598 100.773 75.7678 100.213 75.3998V71.8318ZM114.544 70.3758C114.544 70.0398 114.272 69.7198 113.904 69.7198C113.632 69.7198 113.328 69.9118 112.992 70.3118L109.104 75.0958V70.3278C109.168 69.5438 107.76 69.5438 107.824 70.3278V76.4718C107.824 76.8078 108.096 77.1118 108.464 77.1118C108.752 77.1118 109.056 76.9198 109.376 76.5358L113.264 71.7518V76.5038C113.2 77.2878 114.608 77.2878 114.544 76.5038V70.3758ZM121.041 76.0878C121.745 76.8078 122.673 77.1598 123.809 77.1598C124.945 77.1598 125.873 76.8078 126.593 76.0878C127.297 75.3838 127.649 74.4878 127.649 73.3998C127.649 72.3118 127.297 71.4158 126.593 70.6958C125.873 69.9918 124.945 69.6398 123.809 69.6398C122.673 69.6398 121.745 69.9918 121.041 70.6958C120.321 71.4158 119.969 72.3118 119.969 73.3998C119.969 74.4878 120.321 75.3838 121.041 76.0878ZM121.329 73.3998C121.329 71.8798 122.385 70.8398 123.809 70.8398C125.265 70.8398 126.289 71.9118 126.289 73.3998C126.289 74.9198 125.265 75.9598 123.809 75.9598C122.353 75.9598 121.329 74.8878 121.329 73.3998ZM135.96 70.4078C135.96 70.0718 135.688 69.7998 135.352 69.7998H130.088C129.752 69.7998 129.48 70.0718 129.48 70.4078V76.5038C129.416 77.2878 130.824 77.2878 130.76 76.5038V70.9998H134.68V76.5038C134.616 77.2878 136.024 77.2878 135.96 76.5038V70.4078ZM144.357 70.4078C144.357 70.0718 144.085 69.7998 143.749 69.7998H139.957C139.621 69.7998 139.333 70.0718 139.317 70.4078L139.221 72.0398C139.141 73.3358 138.997 74.2478 138.789 74.8078C138.581 75.3678 138.293 75.7198 137.925 75.8638C137.589 76.0078 137.413 76.2158 137.413 76.5198C137.413 76.8878 137.669 77.1118 138.053 77.1118C139.253 77.1118 140.261 75.6398 140.469 72.2958L140.549 71.0798H143.077V76.5038C143.013 77.2878 144.421 77.2878 144.357 76.5038V70.4078ZM146.156 74.8878C146.156 76.2478 147.036 77.1118 148.364 77.1118C149.34 77.1118 150.108 76.7598 150.668 76.0718V76.5518C150.668 76.8558 150.94 77.1118 151.276 77.1118C151.612 77.1118 151.884 76.8558 151.884 76.5518V72.5838C151.884 70.6158 151.1 69.6398 149.116 69.6398C148.492 69.6398 147.82 69.7838 147.132 70.0718C146.924 70.1518 146.812 70.3278 146.812 70.5838C146.812 70.6638 146.828 70.7278 146.86 70.8078C146.956 71.0158 147.116 71.1278 147.356 71.1278C147.436 71.1278 147.516 71.1118 147.596 71.0798C148.092 70.8878 148.572 70.7918 149.036 70.7918C150.364 70.7918 150.668 71.5278 150.668 73.0638C150.236 72.7598 149.644 72.5998 148.876 72.5998C147.276 72.5998 146.156 73.4638 146.156 74.8878ZM150.668 75.0318C150.14 75.6558 149.532 75.9598 148.812 75.9598C147.996 75.9598 147.516 75.5278 147.516 74.8238C147.516 74.0558 148.204 73.6398 149.052 73.6398C149.676 73.6398 150.22 73.7998 150.668 74.1198V75.0318ZM157.035 71.0798H159.067C159.851 71.1438 159.851 69.7358 159.067 69.7998H153.723C152.939 69.7358 152.939 71.1438 153.723 71.0798H155.755V76.5038C155.691 77.2878 157.099 77.2878 157.035 76.5038V71.0798ZM161.72 72.7598C161.864 71.6238 162.728 70.8398 164.008 70.8398C165.24 70.8398 166.024 71.5598 166.088 72.7598H161.72ZM167.416 72.9358C167.416 71.9598 167.096 71.1758 166.456 70.5518C165.816 69.9438 165.016 69.6398 164.072 69.6398C162.92 69.6398 162.008 69.9918 161.352 70.6958C160.696 71.4158 160.36 72.3118 160.36 73.3998C160.36 74.5358 160.712 75.4478 161.416 76.1358C162.12 76.8238 163.048 77.1598 164.216 77.1598C165.16 77.1598 166.008 76.8878 166.76 76.3598C166.888 76.2798 166.952 76.1358 166.952 75.9278C166.952 75.8158 166.92 75.7198 166.856 75.6398C166.728 75.4958 166.584 75.4318 166.424 75.4318C166.312 75.4318 166.184 75.4638 166.072 75.5278C165.576 75.8158 164.984 75.9598 164.312 75.9598C162.888 75.9598 161.912 75.1438 161.799 73.7998H166.856C167.112 73.7998 167.384 73.5438 167.4 73.2878C167.416 73.2078 167.416 73.0958 167.416 72.9358Z" fill="#666666"/>
<circle cx="25.5" cy="25.5" r="25.5" transform="matrix(-1 0 0 1 347 90.9998)" fill="#FD9339"/>
<g filter="url(#filter1_d_6485_15702)">
<circle cx="16.5" cy="16.5" r="16.5" transform="matrix(-1 0 0 1 338 99.9998)" fill="#FF9E4D"/>
</g>
<path d="M321.024 117.15H318.162C317.406 117.15 317.406 115.89 318.162 115.89H321.024V113.082C321.024 112.74 321.294 112.452 321.708 112.452C322.122 112.452 322.374 112.74 322.374 113.082V115.89H325.182C325.938 115.89 325.938 117.15 325.182 117.15H322.374V119.994C322.374 120.336 322.086 120.642 321.708 120.642C321.294 120.642 321.024 120.336 321.024 119.994V117.15Z" fill="white"/>
<path d="M66.9375 3.82642L38.0625 32.127" stroke="#FD9339" stroke-width="3" stroke-linecap="round" stroke-linejoin="round"/>
<path d="M41.1562 11.9121C44.004 11.9121 46.3125 9.64949 46.3125 6.8584C46.3125 4.06731 44.004 1.80469 41.1562 1.80469C38.3085 1.80469 36 4.06731 36 6.8584C36 9.64949 38.3085 11.9121 41.1562 11.9121Z" stroke="#FD9339" stroke-width="3" stroke-linecap="round" stroke-linejoin="round"/>
<path d="M63.8438 34.1484C66.6915 34.1484 69 31.8858 69 29.0947C69 26.3036 66.6915 24.041 63.8438 24.041C60.996 24.041 58.6875 26.3036 58.6875 29.0947C58.6875 31.8858 60.996 34.1484 63.8438 34.1484Z" stroke="#FD9339" stroke-width="3" stroke-linecap="round" stroke-linejoin="round"/>
<defs>
<filter id="filter0_d_6485_15702" x="0.5" y="1.49976" width="317.605" height="132.803" filterUnits="userSpaceOnUse" color-interpolation-filters="sRGB">
<feFlood flood-opacity="0" result="BackgroundImageFix"/>
<feColorMatrix in="SourceAlpha" type="matrix" values="0 0 0 0 0 0 0 0 0 0 0 0 0 0 0 0 0 0 127 0" result="hardAlpha"/>
<feOffset dy="4"/>
<feGaussianBlur stdDeviation="6.5"/>
<feColorMatrix type="matrix" values="0 0 0 0 0 0 0 0 0 0 0 0 0 0 0 0 0 0 0.13 0"/>
<feBlend mode="normal" in2="BackgroundImageFix" result="effect1_dropShadow_6485_15702"/>
<feBlend mode="normal" in="SourceGraphic" in2="effect1_dropShadow_6485_15702" result="shape"/>
</filter>
<filter id="filter1_d_6485_15702" x="296" y="99.9998" width="42" height="42" filterUnits="userSpaceOnUse" color-interpolation-filters="sRGB">
<feFlood flood-opacity="0" result="BackgroundImageFix"/>
<feColorMatrix in="SourceAlpha" type="matrix" values="0 0 0 0 0 0 0 0 0 0 0 0 0 0 0 0 0 0 127 0" result="hardAlpha"/>
<feOffset dx="-5" dy="5"/>
<feGaussianBlur stdDeviation="2"/>
<feColorMatrix type="matrix" values="0 0 0 0 0.904167 0 0 0 0 0.524442 0 0 0 0 0.203438 0 0 0 1 0"/>
<feBlend mode="normal" in2="BackgroundImageFix" result="effect1_dropShadow_6485_15702"/>
<feBlend mode="normal" in="SourceGraphic" in2="effect1_dropShadow_6485_15702" result="shape"/>
</filter>
</defs>
</svg>
