<svg width="361" height="145" viewBox="0 0 361 145" fill="none" xmlns="http://www.w3.org/2000/svg">
<g filter="url(#filter0_d_6485_15678)">
<path fill-rule="evenodd" clip-rule="evenodd" d="M74 14C71.2386 14 69 16.2386 69 19V89.7074C68.8965 91.6714 68.8124 93.686 68.7486 95.7522C68.2933 110.49 50.7265 117.927 42 119.803C57.373 119.803 70.4204 118.426 81.419 116H342C344.761 116 347 113.761 347 111V19C347 16.2386 344.761 14 342 14H74Z" fill="white"/>
<path d="M69 89.7074H69.5V89.7206L69.4993 89.7338L69 89.7074ZM68.7486 95.7522L68.2488 95.7368L68.7486 95.7522ZM42 119.803V120.303L41.8949 119.314L42 119.803ZM81.419 116L81.3113 115.512L81.3645 115.5H81.419V116ZM68.5 19C68.5 15.9624 70.9624 13.5 74 13.5V14.5C71.5147 14.5 69.5 16.5147 69.5 19H68.5ZM68.5 89.7074V19H69.5V89.7074H68.5ZM68.2488 95.7368C68.3128 93.667 68.397 91.6488 68.5007 89.6811L69.4993 89.7338C69.396 91.6939 69.3121 93.7049 69.2484 95.7676L68.2488 95.7368ZM41.8949 119.314C46.2077 118.387 52.7142 116.081 58.1864 112.193C63.6588 108.305 68.0279 102.887 68.2488 95.7368L69.2484 95.7676C69.014 103.354 64.3721 109.024 58.7656 113.008C53.1589 116.992 46.5188 119.343 42.1051 120.292L41.8949 119.314ZM81.5267 116.488C70.4864 118.923 57.4021 120.303 42 120.303V119.303C57.3439 119.303 70.3544 117.928 81.3113 115.512L81.5267 116.488ZM342 116.5H81.419V115.5H342V116.5ZM347.5 111C347.5 114.038 345.038 116.5 342 116.5V115.5C344.485 115.5 346.5 113.485 346.5 111H347.5ZM347.5 19V111H346.5V19H347.5ZM342 13.5C345.038 13.5 347.5 15.9624 347.5 19H346.5C346.5 16.5147 344.485 14.5 342 14.5V13.5ZM74 13.5H342V14.5H74V13.5Z" fill="#FF9E4C"/>
</g>
<path d="M148.512 59.16C150.144 59.16 151.504 58.616 152.592 57.512C153.68 56.424 154.224 55.048 154.224 53.4C154.224 51.72 153.68 50.328 152.608 49.256C151.52 48.184 150.16 47.64 148.512 47.64C146.864 47.64 145.488 48.184 144.416 49.288C143.344 50.392 142.8 51.768 142.8 53.4C142.8 55.08 143.344 56.472 144.432 57.544C145.504 58.616 146.864 59.16 148.512 59.16ZM148.512 48.92C149.712 48.92 150.736 49.336 151.552 50.184C152.368 51.032 152.784 52.104 152.784 53.4C152.784 54.68 152.384 55.752 151.6 56.6C150.8 57.448 149.776 57.88 148.512 57.88C147.312 57.88 146.288 57.448 145.472 56.584C144.656 55.736 144.24 54.664 144.24 53.4C144.24 52.104 144.64 51.032 145.456 50.184C146.272 49.336 147.28 48.92 148.512 48.92ZM163.175 55.464C163.175 53.288 161.879 51.88 159.831 51.88C158.615 51.88 157.431 52.552 156.967 53.56C157.079 51.752 157.671 50.584 158.775 50.088C159.159 49.912 159.751 49.752 160.535 49.608C161.319 49.464 161.895 49.224 162.263 48.888C162.407 48.76 162.487 48.6 162.487 48.408C162.487 48.264 162.439 48.136 162.343 48.024C162.231 47.88 162.087 47.8 161.911 47.8C161.735 47.8 161.527 47.88 161.319 48.024C161.079 48.168 160.631 48.296 159.991 48.408C159.351 48.52 158.807 48.664 158.343 48.872C156.567 49.624 155.671 51.56 155.671 54.68C155.671 57.448 157.127 59.16 159.479 59.16C160.551 59.16 161.447 58.792 162.135 58.072C162.823 57.352 163.175 56.488 163.175 55.464ZM157.031 54.92C157.271 53.912 158.231 53.08 159.511 53.08C160.967 53.08 161.815 54.072 161.815 55.528C161.815 56.216 161.591 56.792 161.159 57.256C160.711 57.72 160.135 57.96 159.447 57.96C158.023 57.96 157.031 56.76 157.031 54.92ZM165.845 54.76C165.989 53.624 166.853 52.84 168.133 52.84C169.365 52.84 170.149 53.56 170.213 54.76H165.845ZM171.541 54.936C171.541 53.96 171.221 53.176 170.581 52.552C169.941 51.944 169.141 51.64 168.197 51.64C167.045 51.64 166.133 51.992 165.477 52.696C164.821 53.416 164.485 54.312 164.485 55.4C164.485 56.536 164.837 57.448 165.541 58.136C166.245 58.824 167.173 59.16 168.341 59.16C169.285 59.16 170.133 58.888 170.885 58.36C171.013 58.28 171.077 58.136 171.077 57.928C171.077 57.816 171.045 57.72 170.981 57.64C170.853 57.496 170.709 57.432 170.549 57.432C170.437 57.432 170.309 57.464 170.197 57.528C169.701 57.816 169.109 57.96 168.437 57.96C167.013 57.96 166.037 57.144 165.924 55.8H170.981C171.237 55.8 171.509 55.544 171.525 55.288C171.541 55.208 171.541 55.096 171.541 54.936ZM178.205 53.256C178.285 53.304 178.397 53.32 178.509 53.32C178.749 53.32 178.925 53.224 179.037 53.032C179.085 52.952 179.117 52.856 179.117 52.744C179.117 52.504 179.005 52.312 178.781 52.2C178.125 51.832 177.341 51.64 176.445 51.64C175.405 51.64 174.525 52.008 173.837 52.728C173.149 53.448 172.797 54.344 172.797 55.4C172.797 56.536 173.149 57.432 173.869 58.12C174.573 58.808 175.501 59.16 176.653 59.16C177.629 59.16 178.461 58.856 179.149 58.232C179.261 58.136 179.325 57.992 179.325 57.816C179.325 57.656 179.261 57.528 179.149 57.416C179.037 57.304 178.925 57.256 178.781 57.256C178.621 57.256 178.461 57.32 178.285 57.464C177.853 57.8 177.341 57.96 176.749 57.96C176.013 57.96 175.405 57.72 174.909 57.256C174.413 56.792 174.157 56.168 174.157 55.4C174.157 54.664 174.397 54.056 174.893 53.56C175.373 53.08 175.949 52.84 176.621 52.84C177.149 52.84 177.677 52.984 178.205 53.256ZM187.382 52.408C187.382 52.072 187.11 51.8 186.774 51.8H181.51C181.174 51.8 180.902 52.072 180.902 52.408V58.504C180.838 59.288 182.246 59.288 182.182 58.504V53H186.102V58.504C186.038 59.288 187.446 59.288 187.382 58.504V52.408ZM190.563 54.76C190.707 53.624 191.571 52.84 192.851 52.84C194.083 52.84 194.867 53.56 194.931 54.76H190.563ZM196.259 54.936C196.259 53.96 195.939 53.176 195.299 52.552C194.659 51.944 193.859 51.64 192.915 51.64C191.763 51.64 190.851 51.992 190.195 52.696C189.539 53.416 189.203 54.312 189.203 55.4C189.203 56.536 189.555 57.448 190.259 58.136C190.963 58.824 191.891 59.16 193.059 59.16C194.003 59.16 194.851 58.888 195.603 58.36C195.731 58.28 195.795 58.136 195.795 57.928C195.795 57.816 195.763 57.72 195.699 57.64C195.571 57.496 195.427 57.432 195.267 57.432C195.155 57.432 195.027 57.464 194.915 57.528C194.419 57.816 193.827 57.96 193.155 57.96C191.731 57.96 190.755 57.144 190.643 55.8H195.699C195.955 55.8 196.227 55.544 196.243 55.288C196.259 55.208 196.259 55.096 196.259 54.936ZM202.218 55.08C201.786 55.384 201.242 55.528 200.57 55.528C199.53 55.528 199.018 54.968 199.018 53.832V52.328C199.018 51.992 198.73 51.72 198.346 51.72C197.946 51.72 197.658 51.992 197.658 52.328V53.976C197.658 55.816 198.506 56.728 200.218 56.728C201.002 56.728 201.658 56.552 202.218 56.2V58.504C202.154 59.288 203.562 59.288 203.498 58.504V52.328C203.562 51.544 202.154 51.544 202.218 52.328V55.08ZM212.528 52.376C212.528 52.04 212.256 51.72 211.888 51.72C211.616 51.72 211.312 51.912 210.976 52.312L207.088 57.096V52.328C207.152 51.544 205.744 51.544 205.808 52.328V58.472C205.808 58.808 206.08 59.112 206.448 59.112C206.736 59.112 207.04 58.92 207.36 58.536L211.248 53.752V58.504C211.184 59.288 212.592 59.288 212.528 58.504V52.376ZM220.552 53.592C220.552 52.36 219.512 51.736 217.448 51.736C217.272 51.736 216.6 51.752 215.448 51.784C215.112 51.8 214.84 52.088 214.84 52.424V58.376C214.84 58.712 215.112 59 215.448 59.016C216.696 59.048 217.368 59.064 217.48 59.064C219.688 59.064 220.792 58.36 220.792 56.968C220.792 56.04 220.232 55.464 219.112 55.256C219.96 55.112 220.552 54.44 220.552 53.592ZM217.656 55.768C218.84 55.768 219.432 56.136 219.432 56.872C219.432 57.64 218.824 58.024 217.592 58.024C217.384 58.024 216.888 58.008 216.12 57.976V55.768H217.656ZM216.12 52.824C216.76 52.792 217.24 52.776 217.544 52.776C218.648 52.776 219.192 53.128 219.192 53.848C219.192 54.536 218.616 54.968 217.736 54.968H216.12V52.824ZM222.234 56.888C222.234 58.248 223.114 59.112 224.442 59.112C225.418 59.112 226.186 58.76 226.746 58.072V58.552C226.746 58.856 227.018 59.112 227.354 59.112C227.69 59.112 227.962 58.856 227.962 58.552V54.584C227.962 52.616 227.178 51.64 225.194 51.64C224.57 51.64 223.898 51.784 223.21 52.072C223.002 52.152 222.89 52.328 222.89 52.584C222.89 52.664 222.906 52.728 222.938 52.808C223.034 53.016 223.194 53.128 223.434 53.128C223.514 53.128 223.594 53.112 223.674 53.08C224.17 52.888 224.65 52.792 225.114 52.792C226.442 52.792 226.746 53.528 226.746 55.064C226.314 54.76 225.722 54.6 224.954 54.6C223.354 54.6 222.234 55.464 222.234 56.888ZM226.746 57.032C226.218 57.656 225.61 57.96 224.89 57.96C224.074 57.96 223.594 57.528 223.594 56.824C223.594 56.056 224.282 55.64 225.13 55.64C225.754 55.64 226.298 55.8 226.746 56.12V57.032ZM230.985 54.76C231.129 53.624 231.993 52.84 233.273 52.84C234.505 52.84 235.289 53.56 235.353 54.76H230.985ZM236.681 54.936C236.681 53.96 236.361 53.176 235.721 52.552C235.081 51.944 234.281 51.64 233.337 51.64C232.185 51.64 231.273 51.992 230.617 52.696C229.961 53.416 229.625 54.312 229.625 55.4C229.625 56.536 229.977 57.448 230.681 58.136C231.385 58.824 232.313 59.16 233.481 59.16C234.425 59.16 235.273 58.888 236.025 58.36C236.153 58.28 236.217 58.136 236.217 57.928C236.217 57.816 236.185 57.72 236.121 57.64C235.993 57.496 235.849 57.432 235.689 57.432C235.577 57.432 235.449 57.464 235.337 57.528C234.841 57.816 234.249 57.96 233.577 57.96C232.153 57.96 231.177 57.144 231.065 55.8H236.121C236.377 55.8 236.649 55.544 236.665 55.288C236.681 55.208 236.681 55.096 236.681 54.936ZM241.903 56.456C242.159 56.776 242.639 56.776 242.895 56.44L244.927 53.864V58.504C244.863 59.288 246.271 59.288 246.207 58.504V52.328C246.207 51.992 245.919 51.72 245.583 51.72C245.327 51.72 245.055 51.912 244.767 52.312L242.447 55.368L240.015 52.344C239.647 51.88 239.455 51.72 239.135 51.72C238.799 51.72 238.511 51.992 238.511 52.328V58.504C238.447 59.288 239.855 59.288 239.791 58.504V53.864L241.903 56.456ZM148.864 74.592C148.864 73.36 147.824 72.736 145.76 72.736C145.584 72.736 144.912 72.752 143.76 72.784C143.424 72.8 143.152 73.088 143.152 73.424V79.376C143.152 79.712 143.424 80 143.76 80.016C145.008 80.048 145.68 80.064 145.792 80.064C148 80.064 149.104 79.36 149.104 77.968C149.104 77.04 148.544 76.464 147.424 76.256C148.272 76.112 148.864 75.44 148.864 74.592ZM145.968 76.768C147.152 76.768 147.744 77.136 147.744 77.872C147.744 78.64 147.136 79.024 145.904 79.024C145.696 79.024 145.2 79.008 144.432 78.976V76.768H145.968ZM144.432 73.824C145.072 73.792 145.552 73.776 145.856 73.776C146.96 73.776 147.504 74.128 147.504 74.848C147.504 75.536 146.928 75.968 146.048 75.968H144.432V73.824ZM152.338 73.328C152.402 72.544 150.994 72.544 151.058 73.328V79.392C151.058 79.728 151.33 80 151.666 80H153.378C155.474 80 156.37 78.896 156.37 77.44C156.37 75.984 155.57 74.96 153.522 74.96H152.338V73.328ZM159.026 73.328C159.09 72.544 157.682 72.544 157.746 73.328V79.504C157.682 80.288 159.09 80.288 159.026 79.504V73.328ZM152.338 76.16H153.282C154.434 76.16 155.01 76.608 155.01 77.488C155.01 78.368 154.498 78.8 153.266 78.8H152.338V76.16ZM166.252 74.256C166.332 74.304 166.444 74.32 166.556 74.32C166.796 74.32 166.972 74.224 167.084 74.032C167.132 73.952 167.164 73.856 167.164 73.744C167.164 73.504 167.052 73.312 166.828 73.2C166.172 72.832 165.388 72.64 164.492 72.64C163.452 72.64 162.572 73.008 161.884 73.728C161.196 74.448 160.844 75.344 160.844 76.4C160.844 77.536 161.196 78.432 161.916 79.12C162.62 79.808 163.548 80.16 164.7 80.16C165.676 80.16 166.508 79.856 167.196 79.232C167.308 79.136 167.372 78.992 167.372 78.816C167.372 78.656 167.308 78.528 167.196 78.416C167.084 78.304 166.972 78.256 166.828 78.256C166.668 78.256 166.508 78.32 166.332 78.464C165.9 78.8 165.388 78.96 164.796 78.96C164.06 78.96 163.452 78.72 162.956 78.256C162.46 77.792 162.204 77.168 162.204 76.4C162.204 75.664 162.444 75.056 162.94 74.56C163.42 74.08 163.996 73.84 164.668 73.84C165.196 73.84 165.724 73.984 166.252 74.256ZM169.15 79.088C169.854 79.808 170.782 80.16 171.918 80.16C173.054 80.16 173.982 79.808 174.702 79.088C175.406 78.384 175.758 77.488 175.758 76.4C175.758 75.312 175.406 74.416 174.702 73.696C173.982 72.992 173.054 72.64 171.918 72.64C170.782 72.64 169.854 72.992 169.15 73.696C168.43 74.416 168.078 75.312 168.078 76.4C168.078 77.488 168.43 78.384 169.15 79.088ZM169.438 76.4C169.438 74.88 170.494 73.84 171.918 73.84C173.374 73.84 174.398 74.912 174.398 76.4C174.398 77.92 173.374 78.96 171.918 78.96C170.462 78.96 169.438 77.888 169.438 76.4ZM182.23 79.792C182.406 80 182.614 80.112 182.854 80.112C183.254 80.112 183.494 79.824 183.494 79.504C183.494 79.328 183.43 79.168 183.302 79.024L180.742 76.24L183.062 73.712C183.27 73.504 183.286 73.136 183.062 72.896C182.838 72.656 182.374 72.608 181.99 73.056L179.574 75.856C179.366 76.096 179.366 76.512 179.574 76.784L182.23 79.792ZM178.87 73.328C178.934 72.544 177.526 72.544 177.59 73.328V79.504C177.526 80.288 178.934 80.288 178.87 79.504V73.328ZM192.028 73.376C192.028 73.04 191.756 72.72 191.388 72.72C191.116 72.72 190.812 72.912 190.476 73.312L186.588 78.096V73.328C186.652 72.544 185.244 72.544 185.308 73.328V79.472C185.308 79.808 185.58 80.112 185.948 80.112C186.236 80.112 186.54 79.92 186.86 79.536L190.748 74.752V79.504C190.684 80.288 192.092 80.288 192.028 79.504V73.376ZM201.06 73.376C201.06 73.04 200.788 72.72 200.42 72.72C200.148 72.72 199.844 72.912 199.508 73.312L195.62 78.096V73.328C195.684 72.544 194.276 72.544 194.34 73.328V79.472C194.34 79.808 194.612 80.112 194.98 80.112C195.268 80.112 195.572 79.92 195.892 79.536L199.78 74.752V79.504C199.716 80.288 201.124 80.288 201.06 79.504V73.376ZM198.868 69.632C198.708 70.128 198.356 70.384 197.796 70.384C197.204 70.384 196.82 70.128 196.66 69.632C196.548 69.296 196.34 69.12 196.036 69.12C195.668 69.12 195.444 69.328 195.444 69.696C195.444 69.776 195.444 69.84 195.46 69.888C195.636 70.704 196.516 71.36 197.796 71.36C198.964 71.36 199.86 70.704 200.052 69.888C200.068 69.776 200.084 69.712 200.084 69.68C200.084 69.344 199.828 69.12 199.492 69.12C199.188 69.12 198.98 69.296 198.868 69.632ZM207.509 73.12C207.381 72.848 207.173 72.72 206.901 72.72C206.469 72.72 206.197 73.024 206.197 73.392C206.197 73.504 206.213 73.616 206.261 73.696L209.285 80L209.125 80.384C208.629 81.536 208.181 82.016 207.589 82.016C207.397 82.016 207.077 81.936 206.965 81.936C206.629 81.936 206.453 82.112 206.453 82.448C206.453 82.944 206.885 83.2 207.733 83.2C208.261 83.2 208.741 82.976 209.141 82.544C209.541 82.096 209.989 81.248 210.485 80L213.029 73.648C213.077 73.52 213.093 73.424 213.093 73.344C213.093 72.976 212.837 72.72 212.389 72.72C212.085 72.72 211.877 72.88 211.765 73.216L210.245 77.36C210.117 77.744 210.005 78.112 209.909 78.464C209.637 77.792 209.493 77.424 209.477 77.376L207.509 73.12ZM215.901 79.664C216.397 80 217.085 80.16 217.933 80.16C219.037 80.16 219.949 79.792 220.637 79.056C221.325 78.32 221.677 77.392 221.677 76.288C221.677 75.216 221.373 74.336 220.781 73.648C220.173 72.976 219.357 72.64 218.349 72.64C217.373 72.64 216.413 73.056 215.901 73.648V73.328C215.965 72.544 214.557 72.544 214.621 73.328V82.592C214.557 83.376 215.965 83.376 215.901 82.592V79.664ZM215.901 74.832C216.429 74.176 217.133 73.84 217.981 73.84C219.437 73.84 220.317 74.848 220.317 76.336C220.317 77.872 219.341 78.96 217.821 78.96C217.101 78.96 216.461 78.768 215.901 78.4V74.832ZM224.103 79.088C224.807 79.808 225.735 80.16 226.871 80.16C228.007 80.16 228.935 79.808 229.655 79.088C230.359 78.384 230.711 77.488 230.711 76.4C230.711 75.312 230.359 74.416 229.655 73.696C228.935 72.992 228.007 72.64 226.871 72.64C225.735 72.64 224.807 72.992 224.103 73.696C223.383 74.416 223.031 75.312 223.031 76.4C223.031 77.488 223.383 78.384 224.103 79.088ZM224.391 76.4C224.391 74.88 225.447 73.84 226.871 73.84C228.327 73.84 229.351 74.912 229.351 76.4C229.351 77.92 228.327 78.96 226.871 78.96C225.415 78.96 224.391 77.888 224.391 76.4ZM238.255 74.592C238.255 73.36 237.215 72.736 235.151 72.736C234.975 72.736 234.303 72.752 233.151 72.784C232.815 72.8 232.543 73.088 232.543 73.424V79.376C232.543 79.712 232.815 80 233.151 80.016C234.399 80.048 235.071 80.064 235.183 80.064C237.391 80.064 238.495 79.36 238.495 77.968C238.495 77.04 237.935 76.464 236.815 76.256C237.663 76.112 238.255 75.44 238.255 74.592ZM235.359 76.768C236.543 76.768 237.135 77.136 237.135 77.872C237.135 78.64 236.527 79.024 235.295 79.024C235.087 79.024 234.591 79.008 233.823 78.976V76.768H235.359ZM233.823 73.824C234.463 73.792 234.943 73.776 235.247 73.776C236.351 73.776 236.895 74.128 236.895 74.848C236.895 75.536 236.319 75.968 235.439 75.968H233.823V73.824ZM241.329 75.76C241.473 74.624 242.337 73.84 243.617 73.84C244.849 73.84 245.633 74.56 245.697 75.76H241.329ZM247.025 75.936C247.025 74.96 246.705 74.176 246.065 73.552C245.425 72.944 244.625 72.64 243.681 72.64C242.529 72.64 241.617 72.992 240.961 73.696C240.305 74.416 239.969 75.312 239.969 76.4C239.969 77.536 240.321 78.448 241.025 79.136C241.729 79.824 242.657 80.16 243.825 80.16C244.769 80.16 245.617 79.888 246.369 79.36C246.497 79.28 246.561 79.136 246.561 78.928C246.561 78.816 246.529 78.72 246.465 78.64C246.337 78.496 246.193 78.432 246.033 78.432C245.921 78.432 245.793 78.464 245.681 78.528C245.185 78.816 244.593 78.96 243.921 78.96C242.497 78.96 241.521 78.144 241.409 76.8H246.465C246.721 76.8 246.993 76.544 247.009 76.288C247.025 76.208 247.025 76.096 247.025 75.936ZM255.415 73.328C255.479 72.544 254.071 72.544 254.135 73.328V75.76H250.135V73.328C250.199 72.544 248.791 72.544 248.855 73.328V79.504C248.791 80.288 250.199 80.288 250.135 79.504V76.96H254.135V79.504C254.071 80.288 255.479 80.288 255.415 79.504V73.328ZM258.995 73.328C259.059 72.544 257.651 72.544 257.715 73.328V79.392C257.715 79.728 257.987 80 258.323 80H260.147C262.243 80 263.155 78.896 263.155 77.44C263.155 75.984 262.355 74.96 260.307 74.96H258.995V73.328ZM258.995 76.16H260.067C261.219 76.16 261.795 76.608 261.795 77.488C261.795 78.368 261.219 78.8 260.051 78.8H258.995V76.16ZM273.393 74.256C273.473 74.304 273.585 74.32 273.697 74.32C273.937 74.32 274.113 74.224 274.225 74.032C274.273 73.952 274.305 73.856 274.305 73.744C274.305 73.504 274.193 73.312 273.969 73.2C273.313 72.832 272.529 72.64 271.633 72.64C270.593 72.64 269.713 73.008 269.025 73.728C268.337 74.448 267.985 75.344 267.985 76.4C267.985 77.536 268.337 78.432 269.057 79.12C269.761 79.808 270.689 80.16 271.841 80.16C272.817 80.16 273.649 79.856 274.337 79.232C274.449 79.136 274.513 78.992 274.513 78.816C274.513 78.656 274.449 78.528 274.337 78.416C274.225 78.304 274.113 78.256 273.969 78.256C273.809 78.256 273.649 78.32 273.473 78.464C273.041 78.8 272.529 78.96 271.937 78.96C271.201 78.96 270.593 78.72 270.097 78.256C269.601 77.792 269.345 77.168 269.345 76.4C269.345 75.664 269.585 75.056 270.081 74.56C270.561 74.08 271.137 73.84 271.809 73.84C272.337 73.84 272.865 73.984 273.393 74.256ZM276.579 75.76C276.723 74.624 277.587 73.84 278.867 73.84C280.099 73.84 280.883 74.56 280.947 75.76H276.579ZM282.275 75.936C282.275 74.96 281.955 74.176 281.315 73.552C280.675 72.944 279.875 72.64 278.931 72.64C277.779 72.64 276.867 72.992 276.211 73.696C275.555 74.416 275.219 75.312 275.219 76.4C275.219 77.536 275.571 78.448 276.275 79.136C276.979 79.824 277.907 80.16 279.075 80.16C280.019 80.16 280.867 79.888 281.619 79.36C281.747 79.28 281.811 79.136 281.811 78.928C281.811 78.816 281.779 78.72 281.715 78.64C281.587 78.496 281.443 78.432 281.283 78.432C281.171 78.432 281.043 78.464 280.931 78.528C280.435 78.816 279.843 78.96 279.171 78.96C277.747 78.96 276.771 78.144 276.659 76.8H281.715C281.971 76.8 282.243 76.544 282.259 76.288C282.275 76.208 282.275 76.096 282.275 75.936ZM285.385 79.664C285.881 80 286.569 80.16 287.417 80.16C288.521 80.16 289.433 79.792 290.121 79.056C290.809 78.32 291.161 77.392 291.161 76.288C291.161 75.216 290.857 74.336 290.265 73.648C289.657 72.976 288.841 72.64 287.833 72.64C286.857 72.64 285.897 73.056 285.385 73.648V73.328C285.449 72.544 284.041 72.544 284.105 73.328V82.592C284.041 83.376 285.449 83.376 285.385 82.592V79.664ZM285.385 74.832C285.913 74.176 286.617 73.84 287.465 73.84C288.921 73.84 289.801 74.848 289.801 76.336C289.801 77.872 288.825 78.96 287.305 78.96C286.585 78.96 285.945 78.768 285.385 78.4V74.832ZM298.708 74.592C298.708 73.36 297.668 72.736 295.604 72.736C295.428 72.736 294.756 72.752 293.604 72.784C293.268 72.8 292.996 73.088 292.996 73.424V79.376C292.996 79.712 293.268 80 293.604 80.016C294.852 80.048 295.524 80.064 295.636 80.064C297.844 80.064 298.948 79.36 298.948 77.968C298.948 77.04 298.388 76.464 297.268 76.256C298.116 76.112 298.708 75.44 298.708 74.592ZM295.812 76.768C296.996 76.768 297.588 77.136 297.588 77.872C297.588 78.64 296.98 79.024 295.748 79.024C295.54 79.024 295.044 79.008 294.276 78.976V76.768H295.812ZM294.276 73.824C294.916 73.792 295.396 73.776 295.7 73.776C296.804 73.776 297.348 74.128 297.348 74.848C297.348 75.536 296.772 75.968 295.892 75.968H294.276V73.824ZM307.622 73.376C307.622 73.04 307.35 72.72 306.982 72.72C306.71 72.72 306.406 72.912 306.07 73.312L302.182 78.096V73.328C302.246 72.544 300.838 72.544 300.902 73.328V79.472C300.902 79.808 301.174 80.112 301.542 80.112C301.83 80.112 302.134 79.92 302.454 79.536L306.342 74.752V79.504C306.278 80.288 307.686 80.288 307.622 79.504V73.376ZM314.861 74.256C314.941 74.304 315.053 74.32 315.165 74.32C315.405 74.32 315.581 74.224 315.693 74.032C315.741 73.952 315.773 73.856 315.773 73.744C315.773 73.504 315.661 73.312 315.437 73.2C314.781 72.832 313.997 72.64 313.101 72.64C312.061 72.64 311.181 73.008 310.493 73.728C309.805 74.448 309.453 75.344 309.453 76.4C309.453 77.536 309.805 78.432 310.525 79.12C311.229 79.808 312.157 80.16 313.309 80.16C314.285 80.16 315.117 79.856 315.805 79.232C315.917 79.136 315.981 78.992 315.981 78.816C315.981 78.656 315.917 78.528 315.805 78.416C315.693 78.304 315.581 78.256 315.437 78.256C315.277 78.256 315.117 78.32 314.941 78.464C314.509 78.8 313.997 78.96 313.405 78.96C312.669 78.96 312.061 78.72 311.565 78.256C311.069 77.792 310.813 77.168 310.813 76.4C310.813 75.664 311.053 75.056 311.549 74.56C312.029 74.08 312.605 73.84 313.277 73.84C313.805 73.84 314.333 73.984 314.861 74.256ZM317.046 77.888C317.046 79.248 317.926 80.112 319.254 80.112C320.23 80.112 320.998 79.76 321.558 79.072V79.552C321.558 79.856 321.83 80.112 322.166 80.112C322.502 80.112 322.774 79.856 322.774 79.552V75.584C322.774 73.616 321.99 72.64 320.006 72.64C319.382 72.64 318.71 72.784 318.022 73.072C317.814 73.152 317.702 73.328 317.702 73.584C317.702 73.664 317.718 73.728 317.75 73.808C317.846 74.016 318.006 74.128 318.246 74.128C318.326 74.128 318.406 74.112 318.486 74.08C318.982 73.888 319.462 73.792 319.926 73.792C321.254 73.792 321.558 74.528 321.558 76.064C321.126 75.76 320.534 75.6 319.766 75.6C318.166 75.6 317.046 76.464 317.046 77.888ZM321.558 78.032C321.03 78.656 320.422 78.96 319.702 78.96C318.886 78.96 318.406 78.528 318.406 77.824C318.406 77.056 319.094 76.64 319.942 76.64C320.566 76.64 321.11 76.8 321.558 77.12V78.032Z" fill="#666666"/>
<circle cx="25.5" cy="119.5" r="25.5" fill="#FD9339"/>
<g filter="url(#filter1_d_6485_15678)">
<circle cx="25.5" cy="119.5" r="16.5" fill="#FF9E4D"/>
</g>
<path d="M25.976 120.15H28.838C29.594 120.15 29.594 118.89 28.838 118.89H25.976V116.082C25.976 115.74 25.706 115.452 25.292 115.452C24.878 115.452 24.626 115.74 24.626 116.082V118.89H21.818C21.062 118.89 21.062 120.15 21.818 120.15H24.626V122.994C24.626 123.336 24.914 123.642 25.292 123.642C25.706 123.642 25.976 123.336 25.976 122.994V120.15Z" fill="white"/>
<path d="M99.3024 34.4392H94.321C93.4402 34.4392 92.5955 34.0963 91.9727 33.4859C91.3499 32.8755 91 32.0476 91 31.1843V19.7921C91 18.9289 91.3499 18.101 91.9727 17.4906C92.5955 16.8802 93.4402 16.5372 94.321 16.5372H99.3024M110.926 13.2823V6.7725C110.926 5.47762 110.401 4.23577 109.467 3.32015C108.533 2.40453 107.265 1.89014 105.944 1.89014L99.3024 16.5372V34.4392H118.033C118.833 34.4481 119.611 34.173 120.221 33.6646C120.831 33.1562 121.233 32.4487 121.354 31.6726L123.645 17.0255C123.717 16.559 123.685 16.0827 123.551 15.6295C123.417 15.1764 123.184 14.7573 122.868 14.4012C122.552 14.0452 122.161 13.7607 121.721 13.5675C121.282 13.3743 120.805 13.277 120.324 13.2823H110.926Z" stroke="#FD9339" stroke-width="3" stroke-linecap="round" stroke-linejoin="round"/>
<defs>
<filter id="filter0_d_6485_15678" x="28.8949" y="4.5" width="331.605" height="132.803" filterUnits="userSpaceOnUse" color-interpolation-filters="sRGB">
<feFlood flood-opacity="0" result="BackgroundImageFix"/>
<feColorMatrix in="SourceAlpha" type="matrix" values="0 0 0 0 0 0 0 0 0 0 0 0 0 0 0 0 0 0 127 0" result="hardAlpha"/>
<feOffset dy="4"/>
<feGaussianBlur stdDeviation="6.5"/>
<feColorMatrix type="matrix" values="0 0 0 0 0 0 0 0 0 0 0 0 0 0 0 0 0 0 0.13 0"/>
<feBlend mode="normal" in2="BackgroundImageFix" result="effect1_dropShadow_6485_15678"/>
<feBlend mode="normal" in="SourceGraphic" in2="effect1_dropShadow_6485_15678" result="shape"/>
</filter>
<filter id="filter1_d_6485_15678" x="0" y="103" width="42" height="42" filterUnits="userSpaceOnUse" color-interpolation-filters="sRGB">
<feFlood flood-opacity="0" result="BackgroundImageFix"/>
<feColorMatrix in="SourceAlpha" type="matrix" values="0 0 0 0 0 0 0 0 0 0 0 0 0 0 0 0 0 0 127 0" result="hardAlpha"/>
<feOffset dx="-5" dy="5"/>
<feGaussianBlur stdDeviation="2"/>
<feColorMatrix type="matrix" values="0 0 0 0 0.904167 0 0 0 0 0.524442 0 0 0 0 0.203438 0 0 0 1 0"/>
<feBlend mode="normal" in2="BackgroundImageFix" result="effect1_dropShadow_6485_15678"/>
<feBlend mode="normal" in="SourceGraphic" in2="effect1_dropShadow_6485_15678" result="shape"/>
</filter>
</defs>
</svg>
